<?xml version="1.0" encoding="utf-8" ?>
<svg xmlns="http://www.w3.org/2000/svg" xmlns:xlink="http://www.w3.org/1999/xlink" width="1024" height="1024">
	<path fill="#B5F2FF" d="M511.808 125.456C513.539 125.701 515.068 125.974 516.427 127.163C518.874 129.303 519.539 132.948 520.009 136.014C521.084 143.026 521.202 150.315 521.678 157.398L524.447 199.629L533.176 321.69C536.235 310.013 540.629 298.711 544.671 287.351Q554.18 260.396 563.984 233.547Q573.804 205.67 584.083 177.959C587.559 168.477 590.689 158.678 594.792 149.458C596.258 146.164 598.23 141.683 601.246 139.589C603.069 138.323 605.501 137.703 607.689 138.185C609.293 138.538 610.66 139.423 611.463 140.875C613.073 143.787 612.894 147.906 612.433 151.083C611.513 157.43 609.83 163.806 608.494 170.083C605.39 184.658 602.007 199.201 599.052 213.804L582.489 292.63C579.693 305.911 577.46 319.448 574.199 332.605C578.018 327.647 581.225 322.191 584.654 316.955Q591.51 306.597 598.526 296.346C608.325 281.938 678.628 179.341 687.308 175.833C689.243 175.051 691.829 174.903 693.742 175.823C695.662 176.747 697.265 178.734 697.802 180.786C698.674 184.122 696.971 187.978 695.724 191.045C692.342 199.361 687.683 207.417 683.601 215.418L664.803 252.506C647.606 285.693 630.695 319.014 613.055 351.966C624.327 343.385 635.024 333.806 645.949 324.772L712.347 269.791C721.692 262.049 752.956 234.357 761.233 231.684C762.853 231.161 764.831 231.441 766.295 232.278C769.215 233.948 770.347 237.038 771.172 240.102C770.4 243.038 769.263 245.311 767.475 247.75C763.847 252.699 759.477 257.242 755.422 261.848L734.394 285.659L668.234 359.462C661.053 367.338 652.513 374.775 646.195 383.303C665.261 376.484 684.705 366.256 703.081 357.489Q740.094 339.799 777.382 322.697C788.816 317.37 800.435 311.253 812.237 306.838C814.983 305.81 818.22 304.631 821.181 305.09Q821.592 305.153 821.994 305.258Q822.396 305.363 822.786 305.508Q823.176 305.653 823.548 305.837Q823.921 306.021 824.273 306.241Q824.626 306.462 824.953 306.718Q825.281 306.973 825.581 307.261Q825.882 307.548 826.151 307.865Q826.42 308.182 826.656 308.524Q826.934 308.933 827.167 309.37Q827.4 309.807 827.584 310.266Q827.769 310.725 827.903 311.202Q828.037 311.678 828.119 312.166Q828.201 312.655 828.23 313.149Q828.259 313.643 828.234 314.137Q828.21 314.632 828.133 315.12Q828.056 315.609 827.926 316.087C827.074 319.357 824.604 321.431 822.084 323.464C815.9 328.454 808.701 332.582 802.057 336.954L769.949 358.316C736.205 380.77 702.839 403.683 668.356 425.005C676.916 423.453 685.378 421.341 693.924 419.689Q744.943 409.579 796.101 400.195Q815.332 396.604 834.671 393.65C840.061 392.794 845.524 391.509 850.974 391.168C853.427 391.015 855.999 391.062 858.314 391.982C860.463 392.836 861.976 394.475 862.759 396.642Q862.925 397.094 863.042 397.561Q863.159 398.028 863.226 398.505Q863.292 398.981 863.307 399.463Q863.322 399.944 863.286 400.424Q863.249 400.904 863.161 401.377Q863.073 401.851 862.935 402.312Q862.797 402.773 862.611 403.217Q862.424 403.661 862.191 404.082C860.867 406.532 858.808 407.834 856.377 409.012C849.8 412.199 842.682 414.417 835.791 416.814L807.408 426.722C766.706 441.073 725.592 455.015 684.342 467.7L794.749 476.296Q816.461 478.011 838.138 480.113C846.474 480.904 854.955 481.475 863.229 482.757C866.041 483.193 869.759 483.672 872.045 485.449C873.803 486.814 874.748 489.021 874.897 491.203C875.077 493.826 874.297 496.485 872.509 498.45C870.521 500.635 867.136 501.509 864.343 502.043C858.014 503.253 851.299 503.36 844.865 503.896L814.266 506.526C770.916 509.912 727.498 511.809 684.147 515.011Q741.26 535.182 797.904 556.639Q816.429 563.579 834.865 570.751C841.511 573.354 848.546 575.777 854.906 579.022C857.343 580.266 859.519 581.605 860.99 583.985C862.196 585.936 862.585 588.172 862.051 590.407C861.215 593.902 859.245 595.613 856.301 597.427C842.798 598.497 814.62 591.411 800.012 588.424Q759.898 580.219 719.882 571.546C703.922 568.092 687.993 564.26 671.933 561.307C686.682 572.906 702.174 583.624 717.43 594.54L775.297 636.205Q789.861 646.518 804.061 657.326C809.01 661.027 814.289 664.613 818.938 668.67C820.981 670.453 822.948 672.474 824.143 674.94C825.369 677.468 825.453 680.231 824.48 682.864Q824.336 683.262 824.152 683.642Q823.968 684.023 823.746 684.383Q823.524 684.743 823.266 685.078Q823.009 685.413 822.718 685.721Q822.428 686.028 822.107 686.304Q821.787 686.58 821.44 686.822Q821.093 687.064 820.724 687.269Q820.354 687.474 819.965 687.64C816.785 689.018 813.515 688.44 810.377 687.286C804.489 685.121 798.933 681.864 793.398 678.937L769.934 666.589L687.472 623.758C673.696 616.681 659.854 608.742 645.621 602.675C652.027 611.584 659.901 619.797 666.974 628.198Q704.77 672.226 740.929 717.607C748.696 727.502 757.536 737.352 764.438 747.816C766.003 750.188 767.528 752.771 767.965 755.619C768.364 758.217 767.824 760.852 766.131 762.899C764.654 764.686 762.562 765.813 760.233 765.901C756.816 766.029 753.695 764.294 751.01 762.355C744.877 757.925 739.277 751.962 733.699 746.827Q716.746 731.287 700.023 715.501L611.168 632.165C613.25 637.435 615.984 642.523 618.403 647.651L632.336 677.429Q653.442 722.45 673.661 767.876C679.153 780.287 689.114 800.246 692.191 812.895C691.437 816.243 690.746 819.121 687.699 821.172C686.059 822.276 684.039 822.573 682.124 822.122C679.376 821.474 677.467 820.075 675.704 817.945C671.139 812.431 667.493 805.827 663.683 799.763L644.924 769.817L572.849 653.03C575.378 663.608 576.904 674.61 578.886 685.319L590.887 751.206Q596.093 780.145 600.995 809.137C602.703 819.184 604.937 829.439 605.941 839.574C606.269 842.881 606.675 846.732 604.972 849.73Q604.755 850.111 604.501 850.467Q604.247 850.824 603.957 851.153Q603.668 851.482 603.346 851.78Q603.025 852.077 602.675 852.341Q602.325 852.604 601.949 852.83Q601.574 853.056 601.178 853.243Q600.782 853.429 600.368 853.574Q599.955 853.72 599.529 853.822C597.29 854.37 594.375 854.032 592.464 852.66C590.12 850.978 588.576 847.359 587.523 844.725C584.299 836.668 581.947 828.024 579.291 819.753C573.32 801.158 567.711 782.484 562.008 763.807Q552.575 733.315 543.565 702.695C539.553 689.147 535.304 675.54 532.189 661.754C532.635 673.522 531.594 685.497 530.866 697.241L528.709 736.436L524.745 804.554C523.843 819.866 523.285 835.428 521.602 850.665C521.249 853.867 520.94 858.786 519.169 861.532C517.564 864.02 515.269 864.857 512.485 865.434C509.971 865.07 507.684 864.531 505.814 862.661C503.551 860.4 502.978 855.471 502.566 852.402C501.446 844.061 501.231 835.479 500.726 827.078L498.196 782.845Q495.656 739.378 494.02 695.868C493.533 684.567 492.688 673.283 492.387 661.975C490.922 670.817 487.909 679.584 485.343 688.169L473.522 727.409Q461.692 767.007 449.21 806.405C445.33 818.531 441.698 830.911 437.213 842.825C436.113 845.746 434.957 849.207 432.653 851.398C430.763 853.196 428.413 854.262 425.768 854.049C423.575 853.873 421.167 852.826 419.838 851.022C417.946 848.455 417.804 844.902 417.986 841.84C418.341 835.894 419.834 830.102 420.774 824.238Q423.704 805.261 427.043 786.351C434.798 742.068 443.747 697.914 450.915 653.542C435.653 680.545 418.524 706.762 402.293 733.205Q385.422 761.078 367.871 788.529C362.331 797.292 357.003 806.358 351.082 814.857C349.598 816.987 347.835 819.232 345.692 820.717C343.543 822.206 341.047 822.85 338.473 822.236C336.324 821.723 334.298 820.475 333.15 818.555C331.371 815.58 331.942 811.65 332.77 808.475C334.515 801.786 337.871 795.319 340.687 789.026L350.483 766.895C366.149 732.138 382.916 697.848 398.24 662.947C402.251 653.813 408.976 642.911 411.423 633.521C411.469 633.345 411.508 633.168 411.551 632.991C397.234 646.889 275.853 763.04 267.643 765.485C265.175 766.22 262.509 766.372 260.203 765.076C257.039 763.3 256.118 760.521 255.218 757.237C255.87 755.039 256.57 753.1 257.788 751.133C266.472 737.113 281.31 720.284 291.895 707.201Q315.971 677.441 340.482 648.037C353.266 632.693 366.29 617.523 378.527 601.735C369.56 607.658 359.493 612.22 349.913 617.08L310.573 637.304L254.71 666.179C241.88 672.877 228.95 680.227 215.682 685.987C212.562 687.341 208.809 688.982 205.381 688.221C202.738 687.634 200.541 685.971 199.15 683.65C197.788 681.377 197.674 678.766 198.405 676.261C199.3 673.19 201.068 670.88 203.435 668.793C211.826 661.397 221.686 655.107 230.766 648.523Q259.708 627.327 289.178 606.873L330.343 577.714C338.326 572.038 346.268 565.76 354.763 560.886C335.721 565.479 316.213 568.977 297.038 573.033C280.133 576.609 178.595 599.489 168.245 597.338C165.648 596.799 163.493 595.283 162.183 592.964C160.992 590.857 160.42 588.118 161.208 585.776C162.301 582.531 165.183 580.567 168.04 578.974C177.527 573.685 194.51 568.619 205.135 564.616Q249.181 547.829 293.47 531.697L321.901 521.561C327.724 519.484 333.818 517.584 339.369 514.845L340.032 514.514C327.113 514.44 314.038 513.291 301.135 512.516L235.538 508.377C219.698 507.312 203.901 505.862 188.072 504.666C177.82 503.892 166.988 503.731 156.891 501.868C154.296 501.39 151.639 500.547 149.603 498.803C148.004 497.434 146.994 495.614 146.848 493.499C146.675 490.999 147.523 488.267 149.245 486.425C151.158 484.381 154.107 483.595 156.777 483.11C164.305 481.744 172.31 481.398 179.937 480.674L228.194 476.454L291.566 471.388C307.091 470.108 322.635 468.543 338.197 467.808C328.497 464.403 318.608 461.491 308.864 458.189L217.102 426.774L186.455 416.074C180.211 413.879 173.77 411.845 167.732 409.13C165.699 408.216 163.714 407.221 162.272 405.468C160.768 403.637 160.309 401.375 160.657 399.064C161.041 396.518 162.059 394.178 164.275 392.728C166.642 391.18 169.486 390.967 172.237 391.112C178.459 391.44 184.71 393.245 190.861 394.232C203.967 396.336 217.032 398.312 230.103 400.677Q271.821 408.191 313.335 416.763C327.216 419.558 341.158 422.055 354.964 425.213C347.613 418.368 333.39 410.392 324.521 404.526L247.858 353.626C239.516 348.145 231.256 342.527 222.876 337.107C216.647 333.079 210.055 329.242 204.139 324.779C201.542 322.819 198.88 320.58 197.531 317.549C196.464 315.152 196.152 312.274 197.15 309.799C197.905 307.927 199.37 306.554 201.236 305.805C204.567 304.469 208.437 305.343 211.692 306.492C218.894 309.032 225.888 312.817 232.778 316.094L260.874 329.155L378.138 384.306C366.765 369.976 353.913 356.502 341.607 342.965Q312.36 311.063 283.452 278.853C274.867 269.307 265.658 259.982 257.683 249.926C255.576 247.268 252.933 244.072 252.291 240.677C251.882 238.507 252.452 236.167 253.724 234.369C254.866 232.757 256.578 231.886 258.525 231.686C262.029 231.327 265.42 232.97 268.266 234.845C274.332 238.842 279.945 243.986 285.627 248.539Q305.442 264.445 324.942 280.736L376.941 323.664C388.425 333.05 400.159 342.158 411.379 351.859L355.314 244.456L338.996 212.823C334.649 204.404 330.017 195.842 326.491 187.042C325.803 185.324 325.901 183.762 326.129 181.955C326.42 179.643 326.905 177.99 328.882 176.555C330.546 175.347 332.381 174.807 334.424 175.184C337.218 175.7 339.666 177.795 341.564 179.793C346.799 185.301 351.228 191.901 355.717 198.016Q365.041 210.464 374.084 223.117Q413.059 277.818 450.635 333.489C447.79 322.609 445.781 311.375 443.432 300.374L430.375 238.602L418.292 181.793C416.261 172.296 413.875 162.782 412.2 153.221C411.738 150.584 410.803 145.483 411.67 142.956C412.209 141.384 413.941 139.148 415.468 138.423C417.007 137.692 418.964 137.697 420.538 138.356C423.426 139.564 425.438 142.595 426.886 145.229C432.479 155.407 437.491 172.07 441.714 183.379L476.388 278.605Q481.156 292.133 485.714 305.733C487.55 311.179 489.164 316.869 491.569 322.091L491.877 322.751C491.954 295.552 495.052 268.127 496.748 240.972L500.573 180.385C501.366 167.548 501.848 154.565 503.206 141.775C503.589 138.165 503.896 133.503 505.534 130.21C506.874 127.517 509.093 126.433 511.808 125.456ZM469.701 618.081C470.88 619.928 472.177 622.19 474.38 622.95C475.319 623.274 476.027 623.088 476.947 622.865C478.543 621.785 479.44 620.62 480.397 618.946C483.533 613.454 485.681 606.93 488.106 601.067L501.084 570.254C503.332 564.956 505.413 558.117 509.237 553.813C510.19 552.74 511.059 552.365 512.472 552.134C513.655 552.421 514.175 552.678 515.063 553.513L515.359 554.032C519.531 561.499 522.432 569.949 525.657 577.87C529.143 586.428 532.922 594.88 536.499 603.406C538.755 608.785 540.869 615.076 543.989 620.005C544.847 621.359 545.663 622.128 547.066 622.876C548.853 623.034 550.762 622.37 552.097 621.143C553.605 619.758 554.029 617.723 554.046 615.756C554.142 604.505 540.212 549.92 544.236 544.493C545.79 543.866 546.856 543.769 548.402 544.388C551.35 545.569 554.361 548.66 556.907 550.614L588.908 575.539C593.287 578.911 597.744 583 602.544 585.706C604.184 586.631 606.549 587.863 608.519 587.401C609.748 587.113 610.429 586.418 610.983 585.316C611.806 583.679 611.105 582.013 610.291 580.546C606.67 574.023 600.916 568.093 596.248 562.24Q585.923 549.097 575.767 535.824C573.066 532.308 569.095 528.155 567.323 524.131C566.88 523.126 566.837 522.5 567.142 521.475C567.221 521.206 567.316 520.943 567.403 520.677C570.751 519.002 616.473 528.516 623.274 529.684C627.465 530.403 633.16 532.092 637.323 531.468C639.182 531.189 641.141 529.681 641.624 527.807C641.792 527.157 641.475 526.808 641.098 526.311C637.024 520.941 599.653 506.62 590.855 502.988C587.043 501.415 577.99 498.236 575.288 495.535C574.301 494.549 574.343 494.203 574.243 492.887C575.469 490.054 578.118 488.743 580.859 487.623C586.032 485.509 591.693 484.067 597.037 482.407C608.277 478.916 619.563 475.594 630.678 471.716C634.436 470.405 638.789 469.45 642.258 467.568C644.169 466.532 645.124 465.564 646.214 463.697C646.299 462.265 646.347 462.282 645.484 461.147C643.376 460.07 641.558 459.779 639.196 459.676C631.533 459.341 623.262 460.826 615.614 461.632C606.573 462.584 597.512 463.245 588.475 464.219C582.532 464.859 575.031 466.515 569.196 465.273C567.61 464.936 566.94 464.466 566.052 463.133C567.045 457.43 601.744 427.915 609.008 421.272C612.65 417.941 617.687 414.31 620.197 410.104C621.163 408.485 621.202 407.436 620.647 405.664C619.431 404.481 618.352 404.04 616.662 404.026C614.97 404.013 613.291 404.508 611.763 405.208C608.897 406.521 606.528 408.688 603.853 410.33C596.573 414.8 556.182 440.413 551.069 440.023C549.909 438.172 550.372 436.283 550.842 434.229C551.987 429.225 554.41 424.145 556.265 419.361C559.868 410.07 563.293 400.693 566.958 391.43C569.593 384.771 573.005 377.872 574.792 370.956C575.213 369.326 575.476 368.126 574.911 366.488C574.049 365.447 573.351 364.859 571.946 364.7C570.22 364.504 568.853 365.156 567.652 366.34C564.541 369.406 562.588 373.626 560.25 377.269L540.182 408.042C536.869 413.105 533.55 419.491 529.353 423.825C528.467 424.74 527.653 424.996 526.467 425.278C525.375 425.028 524.708 425.104 524.144 424.015C522.369 420.583 522.479 413.791 522.101 409.867L518.681 375.441C518.063 368.789 518.043 361.242 516.453 354.779C515.92 352.616 515.277 350.38 513.205 349.233C512.244 348.701 511.109 348.902 510.033 348.901C509.164 350.104 508.315 351.317 507.882 352.753C505.886 359.383 505.79 367.218 505.12 374.093Q503.351 391.764 501.8 409.456C501.436 413.549 501.634 419.733 500.178 423.514C499.662 424.852 499.436 424.912 498.216 425.473C495.345 424.945 493.598 422.285 492.054 420.005C489.532 416.281 487.397 412.341 484.968 408.569L467.157 381.462C464.326 377.161 461.734 372.316 458.506 368.342C457.211 366.748 455.211 364.709 453.102 364.29C452.08 364.087 450.837 364.159 450.086 364.99C448.832 366.378 449.093 369.128 449.558 370.782C450.996 375.895 453.287 381.046 455.127 386.038Q461.275 402.76 467.598 419.416C469.417 424.232 472.49 430.177 473.341 435.168C473.538 436.325 473.24 437.297 472.821 438.358C471.717 439.258 471.467 439.573 469.952 439.47C466.706 439.249 428.669 415.221 422.296 411.351C418.462 409.023 413.313 405.01 408.978 403.917C407.782 403.615 406.412 403.961 405.426 404.668C404.395 405.406 403.639 406.59 403.56 407.875C403.449 409.669 404.697 411.093 405.781 412.37C410.744 418.213 417.048 423.18 422.713 428.353Q433.892 438.653 444.942 449.091C448.417 452.315 454.244 456.575 456.422 460.744C457.165 462.166 457.002 462.912 456.288 464.274C454.779 465.216 453.594 465.536 451.814 465.659C440.48 466.44 385.451 457.385 380.456 460.346C379.442 460.947 378.725 462.307 378.476 463.428C378.246 464.466 378.511 464.952 379.185 465.715C380.541 467.249 382.915 468.299 384.787 469.048C390.154 471.197 395.973 472.673 401.498 474.387C414.67 478.474 428.093 482.345 441.028 487.109C443.362 487.968 446.263 488.391 448.312 489.822C449.05 490.337 449.64 491.014 449.655 491.937C449.675 493.081 449.314 493.957 448.424 494.702C436.877 504.37 383.431 518.24 380.572 528.253C380.898 529.483 381.123 529.938 382.254 530.6C383.667 531.426 385.29 531.704 386.905 531.681C395.846 531.555 453.327 518.444 456.013 520.341C456.324 520.56 456.423 520.981 456.628 521.301C456.706 523.352 455.997 525.109 455.027 526.899C452.358 531.824 448.19 536.419 444.762 540.874Q434.434 554.355 423.854 567.64C420.514 571.844 415.146 577.172 413.493 582.291C413.01 583.786 413.136 584.924 414.283 586.087C415.392 587.213 417.014 587.578 418.535 587.383C419.698 587.234 420.902 586.772 421.897 586.16C426.663 583.228 431.162 578.922 435.55 575.403Q449.455 564.201 463.482 553.153C467.049 550.358 471.672 545.774 475.924 544.389C477.471 543.885 478.186 544.307 479.425 545.109C480.452 546.749 480.577 548.221 480.494 550.119C480.228 556.204 478.533 562.701 477.483 568.719C476.061 576.878 475.025 585.097 473.626 593.269C472.222 601.47 470.312 609.788 469.701 618.081Z"/>
</svg>
