<svg width="24" height="24" viewBox="2 2 20 20" fill="none" xmlns="http://www.w3.org/2000/svg">
<g id="back">
<g id="Layer 2">
<path id="Vector" d="M12 2C8.28027 2 5.209 2.98486 3.78223 4.63428C1.40137 7.3877 1.40137 16.6123 3.78223 19.3657C5.209 21.0151 8.28027 22 12 22C15.7197 22 18.791 21.0151 20.2178 19.3657C22.5986 16.6123 22.5986 7.38772 20.2178 4.63428C18.791 2.98486 15.7197 2 12 2Z" fill="#00ADB5"/>
<path id="Vector_2" d="M13 16.5C12.7578 16.5004 12.5237 16.4124 12.3418 16.2525L8.3418 12.7525C8.23445 12.6587 8.14841 12.543 8.08946 12.4132C8.0305 12.2835 8 12.1426 8 12C8 11.8575 8.0305 11.7166 8.08946 11.5868C8.14841 11.457 8.23445 11.3414 8.3418 11.2476L12.3418 7.74759C12.4406 7.66074 12.5555 7.59424 12.68 7.55188C12.8045 7.50952 12.9361 7.49214 13.0673 7.50073C13.1985 7.50933 13.3268 7.54373 13.4447 7.60196C13.5626 7.66019 13.6678 7.74112 13.7544 7.84009C13.841 7.93907 13.9072 8.05416 13.9492 8.17877C13.9913 8.30337 14.0083 8.43505 13.9994 8.56624C13.9904 8.69744 13.9557 8.82559 13.8971 8.94334C13.8386 9.0611 13.7574 9.16614 13.6582 9.25247L10.5186 12L13.6582 14.7476C13.8115 14.8814 13.9203 15.0589 13.97 15.2562C14.0197 15.4536 14.008 15.6614 13.9364 15.8519C13.8649 16.0424 13.7369 16.2066 13.5696 16.3224C13.4022 16.4382 13.2035 16.5002 13 16.5Z" fill="white"/>
<path id="Vector_3" d="M12 22C8.28027 22 5.209 21.0156 3.78223 19.3662C1.40137 16.6123 1.40137 7.3877 3.78223 4.63379C5.209 2.98438 8.28027 2 12 2C15.7197 2 18.791 2.98438 20.2178 4.63379C22.5986 7.3877 22.5986 16.6123 20.2178 19.3662C18.791 21.0156 15.7197 22 12 22ZM12 4C8.99414 4 6.2998 4.78027 5.2959 5.94238C3.582 7.92383 3.582 16.0762 5.2959 18.0576C6.2998 19.2197 8.99414 20 12 20C15.0059 20 17.7002 19.2197 18.7041 18.0576C20.418 16.0762 20.418 7.92383 18.7041 5.94238C17.7002 4.78027 15.0059 4 12 4Z" fill="#087A7F"/>
</g>
</g>
</svg>
