<svg width="53" height="53" viewBox="0 0 53 53" fill="none" xmlns="http://www.w3.org/2000/svg">
<path d="M28.2495 49.8966C22.8147 49.9127 17.5749 47.873 13.5815 44.1867C9.58797 40.5004 7.13624 35.4403 6.71821 30.0216C6.6819 29.5896 6.73525 29.1547 6.8749 28.7443C7.01456 28.3339 7.23751 27.9568 7.52977 27.6366C7.81755 27.3272 8.16622 27.0807 8.55386 26.9125C8.9415 26.7443 9.35973 26.6582 9.78227 26.6594H25.2848C25.4544 26.6594 25.6224 26.626 25.7791 26.5611C25.9359 26.4961 26.0783 26.401 26.1983 26.281C26.3182 26.1611 26.4134 26.0186 26.4783 25.8619C26.5432 25.7052 26.5766 25.5372 26.5766 25.3675V9.84846C26.5773 9.42068 26.6676 8.99777 26.8416 8.60697C27.0156 8.21617 27.2695 7.86614 27.587 7.5794C27.9052 7.28334 28.2816 7.05681 28.6923 6.91423C29.1029 6.77165 29.5387 6.71616 29.972 6.75128C35.5337 7.17987 40.712 9.75023 44.4162 13.921C48.1204 18.0917 50.0614 23.5372 49.8304 29.1107C49.6064 34.5473 47.3463 39.7009 43.4988 43.5484C39.6512 47.3959 34.4976 49.656 29.061 49.88L28.2495 49.8966ZM10.0307 30.0216C10.4524 34.6955 12.6614 39.0264 16.1973 42.1118C19.7332 45.1973 24.3234 46.7993 29.0113 46.5841C33.5887 46.3411 37.9144 44.4134 41.1557 41.1722C44.3969 37.9309 46.3246 33.6052 46.5676 29.0278C46.7697 24.3483 45.1617 19.7707 42.0775 16.2455C38.9934 12.7203 34.67 10.5184 30.0051 10.0969V25.351C30.0007 26.5708 29.5142 27.7394 28.6517 28.6019C27.7891 29.4645 26.6205 29.951 25.4007 29.9553L10.0307 30.0216Z" fill="#393E46"/>
<path d="M20.2331 24.8872H4.73065C4.30826 24.8875 3.89033 24.8008 3.50284 24.6327C3.11534 24.4646 2.76655 24.2186 2.47815 23.91C2.18718 23.5923 1.96492 23.218 1.82527 22.8105C1.68563 22.4029 1.63161 21.971 1.66659 21.5416C2.08867 16.4115 4.31819 11.5978 7.95798 7.95798C11.5978 4.31819 16.4115 2.08867 21.5416 1.66659C21.971 1.63161 22.4029 1.68563 22.8105 1.82527C23.218 1.96492 23.5923 2.18718 23.91 2.47815C24.2186 2.76655 24.4646 3.11534 24.6327 3.50284C24.8008 3.89033 24.8875 4.30826 24.8872 4.73065V20.2332C24.8916 20.8456 24.7742 21.4527 24.5419 22.0194C24.3096 22.586 23.9669 23.1008 23.5339 23.5339C23.1008 23.9669 22.586 24.3096 22.0194 24.5419C21.4527 24.7742 20.8456 24.8916 20.2331 24.8872ZM4.97909 21.5747H20.2331C20.5758 21.5747 20.9044 21.4386 21.1466 21.1963C21.3889 20.9541 21.525 20.6255 21.525 20.2828V4.96252C17.2715 5.39088 13.2979 7.28044 10.281 10.3094C7.26411 13.3384 5.39044 17.3195 4.97909 21.5747Z" fill="#393E46"/>
</svg>
