<svg width="54" height="53" viewBox="0 0 54 53" fill="none" xmlns="http://www.w3.org/2000/svg">
<path d="M11.2373 10.5073C11.2373 15.7309 14.4014 19.9809 18.29 19.9809C22.1797 19.9809 25.3437 15.7309 25.3437 10.5073C25.3437 5.67431 22.5752 2.55224 18.29 2.55224C14.0059 2.55225 11.2373 5.67432 11.2373 10.5073ZM18.29 17.981C15.5039 17.981 13.2373 14.6284 13.2373 10.5073C13.2373 10.4609 13.2454 10.4212 13.246 10.3753C14.0645 10.6663 14.8613 10.8013 15.6113 10.8013C17.791 10.8013 19.5977 9.80518 20.5303 9.16748C21.1901 9.63739 22.2456 10.2137 23.3216 10.1713C23.3255 10.2863 23.3438 10.3892 23.3438 10.5073C23.3438 14.6284 21.0772 17.981 18.29 17.981ZM23.0355 8.17047C22.4409 8.08252 21.637 7.54468 21.2256 7.16846C20.8486 6.8208 20.2725 6.81494 19.8877 7.15088C19.7554 7.26471 16.7872 9.78937 13.5095 8.33447C14.1246 5.94024 15.8059 4.55224 18.29 4.55224C20.719 4.55225 22.387 5.87384 23.0355 8.17047ZM47.9443 40.1616C41.4042 37.3293 35.1867 37.6937 28.4795 40.3413C27.752 40.6255 25.8213 41.3823 25.8213 43.7886V48.4478C25.8213 49.0005 26.2686 49.4478 26.8213 49.4478H50C50.5527 49.4478 51 49.0005 51 48.4478V43.7886C51 41.4429 48.8525 40.3853 47.9443 40.1616ZM49 47.4478H27.8213V43.7886C27.8213 42.8237 28.4229 42.5112 29.209 42.2036C35.3606 39.7883 41.0441 39.3186 47.2412 42.0376C47.8671 42.3135 49 42.5758 49 43.7886V47.4478Z" fill="#393E46"/>
<path d="M28.9238 33.4634C28.6768 34.0103 28.667 34.6421 28.8975 35.1968C29.126 35.7456 29.5732 36.1782 30.125 36.3833C32.7578 37.3667 35.5566 37.8579 38.3301 37.8579C41.1074 37.8579 43.8604 37.3647 46.3984 36.3804C46.9385 36.1704 47.3633 35.7573 47.5928 35.2183C47.8203 34.6821 47.8232 34.0669 47.5986 33.5298C46.7764 31.564 45.4541 27.1977 44.6504 24.1128C44.6464 24.0972 44.6348 24.0864 44.63 24.0712C43.9073 21.0221 41.6257 19.1489 38.4102 19.1489C35.2078 19.1489 32.9253 20.9861 32.177 23.9854C32.1733 23.9974 32.1643 24.0059 32.1611 24.0181C32.1436 24.0859 32.1231 24.1595 32.1045 24.2294C31.2435 23.5349 25.4156 20.6948 18.2939 20.6948C13.459 20.6948 3 22.5407 3 27.3716V32.1196C3 32.6724 3.44727 33.1196 4 33.1196H29.0747C29.0232 33.2391 28.9722 33.3566 28.9238 33.4634ZM45.7519 34.4351C45.7402 34.4624 45.7178 34.4985 45.6738 34.5151C41.0537 36.3101 35.6396 36.3081 30.8242 34.5093C30.7783 34.4927 30.7558 34.4565 30.7441 34.4282C30.7334 34.4019 30.7187 34.3491 30.7461 34.2886C31.3201 33.0197 32.0254 31.0807 32.4818 29.7547C33.4966 32.7354 35.7623 34.8198 38.3935 34.8198C40.9714 34.8198 43.1963 32.8173 44.24 29.9331C44.7649 31.6238 45.3093 33.2402 45.7529 34.3013C45.7773 34.3589 45.7627 34.4097 45.7519 34.4351ZM33.937 26.9567C35.4885 26.8646 36.7709 26.0734 37.6494 25.1147C38.9236 26.0759 40.9512 27.4211 42.7385 27.8437C42.2527 30.6967 40.4917 32.8198 38.3936 32.8198C36.0825 32.8198 34.1753 30.2471 33.937 26.9567ZM38.4102 21.1489C41.105 21.1489 42.6908 22.8452 42.8455 25.7966C41.4993 25.3553 39.6504 24.1772 38.2158 23.02C37.9688 22.8228 37.6484 22.7407 37.3359 22.7827C37.0244 22.8296 36.7432 23.0073 36.5625 23.273C36.2979 23.6648 35.4265 24.7598 34.0247 24.939C34.4257 22.5178 35.9679 21.1489 38.4102 21.1489ZM5 31.1196V27.3716C5 24.2522 15.1642 22.6948 18.2939 22.6948C22.4464 22.6948 30.6442 24.542 31.4193 26.575C30.947 28.0883 30.3889 29.7229 29.8679 31.1196H5Z" fill="#393E46"/>
</svg>
