<svg width="23" height="32" viewBox="0 0 23 32" fill="none" xmlns="http://www.w3.org/2000/svg">
<path d="M23 11.2085C23.0026 9.06203 22.3712 6.96005 21.1812 5.15302C19.9912 3.346 18.2926 1.91012 16.2879 1.01644C14.2832 0.12277 12.0568 -0.191016 9.87406 0.11247C7.6913 0.415956 5.64418 1.32392 3.97658 2.72819C2.30898 4.13245 1.09122 5.97382 0.468369 8.0329C-0.154479 10.092 -0.156152 12.282 0.463551 14.342C1.08325 16.4019 2.29821 18.2451 3.96366 19.6517C5.62911 21.0584 7.67485 21.9693 9.85714 22.276V25.6026H8.21428C7.77857 25.6026 7.3607 25.7711 7.0526 26.0711C6.74451 26.371 6.57142 26.7778 6.57142 27.202C6.57142 27.6261 6.74451 28.0329 7.0526 28.3329C7.3607 28.6328 7.77857 28.8013 8.21428 28.8013H9.85714V30.4007C9.85714 30.8248 10.0302 31.2316 10.3383 31.5316C10.6464 31.8315 11.0643 32 11.5 32C11.9357 32 12.3536 31.8315 12.6617 31.5316C12.9698 31.2316 13.1429 30.8248 13.1429 30.4007V28.8013H14.7857C15.2214 28.8013 15.6393 28.6328 15.9474 28.3329C16.2555 28.0329 16.4286 27.6261 16.4286 27.202C16.4286 26.7778 16.2555 26.371 15.9474 26.0711C15.6393 25.7711 15.2214 25.6026 14.7857 25.6026H13.1429V22.276C15.8775 21.8917 18.3787 20.5618 20.1888 18.5295C21.9988 16.4972 22.9968 13.8984 23 11.2085ZM11.5 19.2052C9.87536 19.2052 8.28721 18.7362 6.93638 17.8576C5.58555 16.9789 4.5327 15.7299 3.91098 14.2687C3.28926 12.8075 3.12659 11.1997 3.44354 9.64845C3.76049 8.09724 4.54283 6.67236 5.69162 5.554C6.8404 4.43564 8.30405 3.67402 9.89747 3.36547C11.4909 3.05691 13.1425 3.21527 14.6435 3.82053C16.1444 4.42578 17.4273 5.45074 18.3299 6.76579C19.2325 8.08085 19.7143 9.62693 19.7143 11.2085C19.7143 12.2587 19.5018 13.2985 19.089 14.2687C18.6762 15.2389 18.0711 16.1205 17.3084 16.8631C16.5456 17.6056 15.6401 18.1947 14.6435 18.5965C13.6469 18.9984 12.5787 19.2052 11.5 19.2052Z" fill="#E942D8"/>
</svg>
