<svg width="54" height="53" viewBox="0 0 54 53" fill="none" xmlns="http://www.w3.org/2000/svg">
<path d="M27.0736 41.9583C18.4611 41.9583 11.6153 35.1125 11.6153 26.5C11.6153 17.8875 18.4611 11.0417 27.0736 11.0417C31.4903 11.0417 35.6861 13.0292 38.5569 16.1208L34.5819 16.7833C33.4778 17.0042 32.5944 18.1083 32.8153 19.4333C33.0361 20.5375 33.9194 21.2 35.0236 21.2H35.4653L44.7403 19.4333C45.8444 19.2125 46.7278 18.1083 46.5069 16.7833L44.7403 7.72917C44.5194 6.625 43.4153 5.74167 42.0903 5.9625C40.9861 6.18334 40.1028 7.2875 40.3236 8.6125L40.9861 12.3667C37.2319 8.83334 32.3736 6.625 27.0736 6.625C19.7861 6.625 13.3819 10.6 9.84861 16.5625C8.08194 19.6542 7.19861 22.9667 7.19861 26.5C7.19861 30.0333 8.08194 33.3458 9.84861 36.4375C11.6153 39.5292 14.0444 41.9583 17.1361 43.725C20.2278 45.4917 23.5403 46.375 27.0736 46.375C27.9569 46.375 28.8403 45.7125 29.0611 45.05C29.2819 44.8292 29.2819 44.3875 29.2819 44.1667C29.2819 43.9458 29.2819 43.5042 29.0611 43.2833C28.8403 42.6208 27.9569 41.9583 27.0736 41.9583Z" fill="#393E46"/>
<path d="M44.7403 28.7083C45.9599 28.7083 46.9486 27.7196 46.9486 26.5C46.9486 25.2804 45.9599 24.2917 44.7403 24.2917C43.5207 24.2917 42.532 25.2804 42.532 26.5C42.532 27.7196 43.5207 28.7083 44.7403 28.7083Z" fill="#393E46"/>
<path d="M44.2546 36.4911C44.8644 35.4348 44.5025 34.0842 43.4462 33.4744C42.39 32.8646 41.0394 33.2265 40.4296 34.2827C39.8198 35.3389 40.1817 36.6895 41.2379 37.2994C42.2941 37.9092 43.6447 37.5473 44.2546 36.4911Z" fill="#393E46"/>
<path d="M36.9788 43.6575C38.0351 43.0476 38.397 41.697 37.7871 40.6408C37.1773 39.5846 35.8267 39.2227 34.7705 39.8325C33.7143 40.4423 33.3524 41.7929 33.9622 42.8491C34.572 43.9054 35.9226 44.2673 36.9788 43.6575Z" fill="#393E46"/>
<path d="M29.2819 25.6167V19.875C29.2819 18.55 28.3986 17.6667 27.0736 17.6667C25.7486 17.6667 24.8652 18.55 24.8652 19.875V26.5C24.8652 27.1625 25.0861 27.6042 25.5277 28.0458L29.9444 32.4625C30.3861 32.9042 31.0486 33.125 31.4902 33.125C31.9319 33.125 32.5944 32.9042 33.0361 32.4625C33.9194 31.5792 33.9194 30.2542 33.0361 29.3708L29.2819 25.6167Z" fill="#393E46"/>
</svg>
