<svg width="53" height="53" viewBox="0 0 53 53" fill="none" xmlns="http://www.w3.org/2000/svg">
<path d="M44.1669 17.7195L30.9169 6.10368C29.7022 5.01728 28.1298 4.41667 26.5002 4.41667C24.8706 4.41667 23.2982 5.01728 22.0835 6.10368L8.83354 17.7195C8.13211 18.3468 7.57236 19.1164 7.19158 19.977C6.81081 20.8375 6.61773 21.7693 6.62521 22.7104V42.0112C6.62521 43.7682 7.3232 45.4533 8.56563 46.6958C9.80806 47.9382 11.4931 48.6362 13.2502 48.6362H39.7502C41.5073 48.6362 43.1924 47.9382 44.4348 46.6958C45.6772 45.4533 46.3752 43.7682 46.3752 42.0112V22.6883C46.3796 21.751 46.185 20.8234 45.8043 19.9669C45.4236 19.1104 44.8655 18.3444 44.1669 17.7195ZM30.9169 44.2195H22.0835V33.1779C22.0835 32.5922 22.3162 32.0305 22.7303 31.6163C23.1445 31.2022 23.7062 30.9695 24.2919 30.9695H28.7085C29.2942 30.9695 29.8559 31.2022 30.2701 31.6163C30.6842 32.0305 30.9169 32.5922 30.9169 33.1779V44.2195ZM41.9585 42.0112C41.9585 42.5969 41.7259 43.1586 41.3117 43.5727C40.8976 43.9869 40.3359 44.2195 39.7502 44.2195H35.3335V33.1779C35.3335 31.4208 34.6356 29.7357 33.3931 28.4933C32.1507 27.2508 30.4656 26.5528 28.7085 26.5528H24.2919C22.5348 26.5528 20.8497 27.2508 19.6073 28.4933C18.3649 29.7357 17.6669 31.4208 17.6669 33.1779V44.2195H13.2502C12.6645 44.2195 12.1028 43.9869 11.6887 43.5727C11.2745 43.1586 11.0419 42.5969 11.0419 42.0112V22.6883C11.0423 22.3747 11.1094 22.0648 11.2389 21.7793C11.3684 21.4937 11.5572 21.239 11.7927 21.032L25.0427 9.43827C25.4457 9.08423 25.9638 8.88898 26.5002 8.88898C27.0366 8.88898 27.5547 9.08423 27.9577 9.43827L41.2077 21.032C41.4433 21.239 41.6321 21.4937 41.7615 21.7793C41.891 22.0648 41.9581 22.3747 41.9585 22.6883V42.0112Z" fill="#00ADB5"/>
</svg>
