<svg width="24" height="24" viewBox="0 0 24 24" fill="none" xmlns="http://www.w3.org/2000/svg">
<g id="icon=mail">
<path id="Vector" d="M7.51003 4C5.0247 4 3 6.01977 3 8.49975V14.4997C3 16.9797 5.0247 19 7.51003 19H16.4905C18.9759 19 21 16.9797 21 14.4997V8.49975C21 6.01977 18.9759 4 16.4905 4H7.51003ZM7.51003 5.50304H16.4905C16.5412 5.50304 16.5916 5.50446 16.6414 5.50673C16.6642 5.50787 16.6864 5.50986 16.7086 5.51156C16.7351 5.51327 16.7616 5.51497 16.7875 5.51724C16.8316 5.52151 16.8751 5.5269 16.9184 5.53315C16.9201 5.53315 16.9218 5.53315 16.9233 5.53372C18.2818 5.72746 19.297 6.82427 19.4354 8.20459C19.0852 8.51281 18.1981 9.28039 16.876 10.1988C15.2544 11.3249 13.2078 12.3796 12.0001 12.3796C10.7922 12.3796 8.74615 11.3249 7.12428 10.1985C5.8019 9.28038 4.91481 8.51281 4.56493 8.20431C4.70301 6.82427 5.71878 5.72717 7.07759 5.53372L7.08243 5.53287C7.12542 5.52662 7.16898 5.52151 7.21282 5.51724C7.23958 5.51469 7.26634 5.51327 7.2931 5.51156C7.31531 5.50986 7.33723 5.50758 7.35943 5.50673C7.40926 5.50446 7.45936 5.50304 7.51003 5.50304ZM19.4937 10.1176V13.1307C18.733 12.6655 17.9547 12.2296 17.1604 11.824C17.3563 11.6939 17.549 11.5629 17.7366 11.4325C18.337 11.014 18.9231 10.5753 19.4937 10.1173V10.1176ZM4.50657 10.1176C4.99624 10.5099 5.59693 10.9698 6.26338 11.4328C6.45128 11.5629 6.64373 11.6939 6.83959 11.824C6.04543 12.2296 5.26718 12.6655 4.50657 13.1307V10.1176ZM8.36353 12.7546C9.54783 13.402 10.7988 13.8827 12.0001 13.8827C13.2015 13.8827 14.4522 13.402 15.6368 12.7549C17.4579 13.5929 18.942 14.5531 19.4203 14.8681C19.2517 16.2138 18.253 17.2779 16.9184 17.4671L16.9008 17.4694C16.861 17.4748 16.8211 17.4795 16.7812 17.4833C16.7644 17.485 16.7476 17.4859 16.7305 17.487C16.6995 17.4893 16.6687 17.4921 16.6374 17.4935C16.589 17.4958 16.5398 17.497 16.4905 17.497H7.51003C7.46078 17.497 7.41182 17.4958 7.36314 17.4935C7.33267 17.4921 7.3025 17.4896 7.27232 17.4873C7.25467 17.4859 7.23673 17.485 7.21908 17.4833C7.17923 17.4794 7.13937 17.4748 7.10008 17.4691L7.08243 17.4671C5.74724 17.2779 4.74856 16.2138 4.58002 14.8679C5.0583 14.5531 6.54238 13.5929 8.36353 12.7546Z" fill="#393E46"/>
</g>
</svg>
