<svg width="24" height="24" viewBox="0 0 24 24" fill="none" xmlns="http://www.w3.org/2000/svg">
<g id="icon=trash">
<path id="Vector" d="M10.4444 16.6C10.6507 16.6 10.8486 16.5104 10.9944 16.351C11.1403 16.1916 11.2222 15.9754 11.2222 15.75V10.65C11.2222 10.4246 11.1403 10.2084 10.9944 10.049C10.8486 9.88955 10.6507 9.8 10.4444 9.8C10.2382 9.8 10.0403 9.88955 9.89447 10.049C9.74861 10.2084 9.66667 10.4246 9.66667 10.65V15.75C9.66667 15.9754 9.74861 16.1916 9.89447 16.351C10.0403 16.5104 10.2382 16.6 10.4444 16.6ZM18.2222 6.4H15.1111V5.55C15.1111 4.8737 14.8653 4.2251 14.4277 3.74688C13.9901 3.26866 13.3966 3 12.7778 3H11.2222C10.6034 3 10.0099 3.26866 9.57231 3.74688C9.13472 4.2251 8.88889 4.8737 8.88889 5.55V6.4H5.77778C5.5715 6.4 5.37367 6.48955 5.22781 6.64896C5.08194 6.80837 5 7.02457 5 7.25C5 7.47543 5.08194 7.69163 5.22781 7.85104C5.37367 8.01045 5.5715 8.1 5.77778 8.1H6.55556V17.45C6.55556 18.1263 6.80139 18.7749 7.23897 19.2531C7.67656 19.7313 8.27005 20 8.88889 20H15.1111C15.7299 20 16.3234 19.7313 16.761 19.2531C17.1986 18.7749 17.4444 18.1263 17.4444 17.45V8.1H18.2222C18.4285 8.1 18.6263 8.01045 18.7722 7.85104C18.9181 7.69163 19 7.47543 19 7.25C19 7.02457 18.9181 6.80837 18.7722 6.64896C18.6263 6.48955 18.4285 6.4 18.2222 6.4ZM10.4444 5.55C10.4444 5.32457 10.5264 5.10837 10.6723 4.94896C10.8181 4.78955 11.0159 4.7 11.2222 4.7H12.7778C12.9841 4.7 13.1819 4.78955 13.3277 4.94896C13.4736 5.10837 13.5556 5.32457 13.5556 5.55V6.4H10.4444V5.55ZM15.8889 17.45C15.8889 17.6754 15.8069 17.8916 15.6611 18.051C15.5152 18.2104 15.3174 18.3 15.1111 18.3H8.88889C8.68261 18.3 8.48478 18.2104 8.33892 18.051C8.19306 17.8916 8.11111 17.6754 8.11111 17.45V8.1H15.8889V17.45ZM13.5556 16.6C13.7618 16.6 13.9597 16.5104 14.1055 16.351C14.2514 16.1916 14.3333 15.9754 14.3333 15.75V10.65C14.3333 10.4246 14.2514 10.2084 14.1055 10.049C13.9597 9.88955 13.7618 9.8 13.5556 9.8C13.3493 9.8 13.1514 9.88955 13.0056 10.049C12.8597 10.2084 12.7778 10.4246 12.7778 10.65V15.75C12.7778 15.9754 12.8597 16.1916 13.0056 16.351C13.1514 16.5104 13.3493 16.6 13.5556 16.6Z" fill="#393E46"/>
</g>
</svg>
