<svg width="24" height="24" viewBox="0 0 24 24" fill="none" xmlns="http://www.w3.org/2000/svg">
<g id="icon=profile">
<path id="Vector" d="M15.3717 12.9296C16.1887 12.2868 16.785 11.4053 17.0777 10.4079C17.3704 9.41038 17.345 8.34647 17.0048 7.36414C16.6647 6.38181 16.0269 5.52991 15.1801 4.92696C14.3333 4.32401 13.3196 4 12.28 4C11.2405 4 10.2268 4.32401 9.37997 4.92696C8.53315 5.52991 7.89531 6.38181 7.5552 7.36414C7.21509 8.34647 7.18962 9.41038 7.48233 10.4079C7.77503 11.4053 8.37137 12.2868 9.18836 12.9296C7.78842 13.4904 6.56693 14.4207 5.6541 15.6212C4.74127 16.8217 4.17133 18.2473 4.00503 19.7462C3.99299 19.8557 4.00262 19.9664 4.03338 20.0721C4.06414 20.1778 4.11542 20.2765 4.18429 20.3624C4.32338 20.5358 4.52568 20.6469 4.74669 20.6712C4.96771 20.6956 5.18933 20.6311 5.3628 20.492C5.53627 20.3529 5.64738 20.1506 5.67169 19.9296C5.85468 18.3006 6.63143 16.7961 7.85354 15.7036C9.07565 14.6111 10.6574 14.0071 12.2967 14.0071C13.9359 14.0071 15.5177 14.6111 16.7398 15.7036C17.962 16.7961 18.7387 18.3006 18.9217 19.9296C18.9444 20.1343 19.0421 20.3235 19.1959 20.4604C19.3498 20.5974 19.549 20.6725 19.755 20.6712H19.8467C20.0651 20.6461 20.2648 20.5357 20.4022 20.364C20.5395 20.1923 20.6035 19.9732 20.58 19.7546C20.4129 18.2514 19.8399 16.8221 18.9224 15.6198C18.0049 14.4174 16.7775 13.4875 15.3717 12.9296ZM12.28 12.3379C11.6208 12.3379 10.9763 12.1424 10.4281 11.7761C9.87996 11.4099 9.45272 10.8893 9.20043 10.2802C8.94814 9.67111 8.88212 9.00088 9.01074 8.35428C9.13936 7.70768 9.45683 7.11373 9.923 6.64756C10.3892 6.18138 10.9831 5.86391 11.6297 5.7353C12.2763 5.60668 12.9466 5.67269 13.5556 5.92498C14.1647 6.17727 14.6853 6.60452 15.0516 7.15268C15.4179 7.70084 15.6134 8.34531 15.6134 9.00458C15.6134 9.88864 15.2622 10.7365 14.6371 11.3616C14.0119 11.9867 13.1641 12.3379 12.28 12.3379Z" fill="#393E46"/>
</g>
</svg>
