<svg width="24" height="24" viewBox="0 0 24 24" fill="none" xmlns="http://www.w3.org/2000/svg">
<g id="icon=settings">
<g id="10. Settings">
<path id="Vector" d="M20.0174 12.8073C19.9541 12.7688 19.9031 12.7129 19.8706 12.6463C19.8381 12.5796 19.8255 12.505 19.8343 12.4314C19.8491 12.2446 19.8572 12.054 19.8572 11.862C19.8572 11.67 19.8491 11.4795 19.8343 11.2912C19.8256 11.2177 19.8383 11.1434 19.8708 11.077C19.9033 11.0106 19.9542 10.955 20.0174 10.9167C20.4431 10.6704 20.7536 10.2653 20.881 9.79029C21.0083 9.3153 20.9421 8.80918 20.6969 8.38294L19.5965 6.47834C19.3486 6.05327 18.9423 5.74383 18.4667 5.61786C17.991 5.49188 17.4848 5.55965 17.059 5.80631C16.9986 5.84197 16.9293 5.85947 16.8592 5.85672C16.7891 5.85397 16.7213 5.83108 16.6639 5.7908C16.3379 5.56669 15.9943 5.36912 15.6367 5.2C15.5719 5.16918 15.5174 5.12014 15.4801 5.0589C15.4427 4.99765 15.424 4.92683 15.4262 4.85512C15.4256 4.36329 15.23 3.89177 14.8822 3.544C14.5344 3.19622 14.0629 3.00059 13.5711 3H11.3733C10.8804 3.00098 10.4081 3.19765 10.0603 3.54678C9.71237 3.89591 9.51739 4.3689 9.51817 4.86176C9.51832 4.93153 9.4987 4.99992 9.46158 5.05899C9.42446 5.11807 9.37136 5.16542 9.30844 5.19556C8.95044 5.36452 8.60665 5.56209 8.28044 5.78637C8.22215 5.8267 8.15348 5.8494 8.08263 5.85175C8.01179 5.85411 7.94176 5.83603 7.88092 5.79966C7.45485 5.55393 6.94866 5.48739 6.47357 5.61465C5.99847 5.7419 5.59331 6.05255 5.34712 6.47834L4.24749 8.38294C4.00222 8.80918 3.93601 9.3153 4.06338 9.79029C4.19075 10.2653 4.50129 10.6704 4.92691 10.9167C4.9903 10.9552 5.04127 11.0111 5.07375 11.0778C5.10623 11.1444 5.11883 11.219 5.11006 11.2926C5.09529 11.4795 5.08716 11.67 5.08716 11.862C5.08716 12.054 5.09529 12.2446 5.11006 12.4329C5.11872 12.5063 5.10606 12.5806 5.07358 12.647C5.0411 12.7134 4.99018 12.7691 4.92691 12.8073C4.50129 13.0537 4.19075 13.4587 4.06338 13.9337C3.93601 14.4087 4.00222 14.9149 4.24749 15.3411L5.34786 17.2457C5.59498 17.6715 6.00101 17.9819 6.47679 18.1086C6.95256 18.2353 7.45917 18.168 7.88535 17.9214C7.94567 17.8856 8.01508 17.868 8.08519 17.8707C8.1553 17.8735 8.22312 17.8965 8.28044 17.9369C8.6065 18.161 8.95002 18.3586 9.3077 18.5277C9.37191 18.5583 9.42593 18.6067 9.46327 18.6673C9.50061 18.7278 9.51967 18.7978 9.51817 18.8689C9.51876 19.3607 9.7144 19.8323 10.0622 20.18C10.4099 20.5278 10.8815 20.7234 11.3733 20.724H13.5711C14.0639 20.7231 14.5362 20.5264 14.8841 20.1773C15.232 19.8281 15.427 19.3551 15.4262 18.8623C15.426 18.7925 15.4457 18.7241 15.4828 18.665C15.5199 18.606 15.573 18.5586 15.6359 18.5285C15.9939 18.3595 16.3377 18.1619 16.6639 17.9377C16.7222 17.8973 16.7909 17.8746 16.8617 17.8723C16.9326 17.8699 17.0026 17.888 17.0634 17.9244C17.4896 18.1695 17.9956 18.2357 18.4706 18.1085C18.9455 17.9813 19.3506 17.671 19.5972 17.2457L20.6969 15.3418C20.9424 14.9155 21.0087 14.4092 20.8813 13.9341C20.754 13.4589 20.4433 13.0537 20.0174 12.8073ZM18.3802 11.862C18.3802 12.0134 18.3735 12.1633 18.3617 12.311C18.3323 12.6628 18.4028 13.0158 18.5651 13.3293C18.7273 13.6429 18.9748 13.9042 19.2789 14.0834C19.322 14.1083 19.3597 14.1414 19.3899 14.1808C19.4202 14.2203 19.4423 14.2653 19.4552 14.3133C19.468 14.3613 19.4712 14.4114 19.4647 14.4606C19.4581 14.5099 19.442 14.5574 19.417 14.6004L18.3189 16.5042C18.2676 16.5913 18.1839 16.6544 18.0862 16.6797C17.9884 16.705 17.8846 16.6905 17.7975 16.6394C17.4946 16.4661 17.149 16.3816 16.8003 16.3956C16.4516 16.4096 16.1138 16.5215 15.8257 16.7184C15.5648 16.8979 15.2899 17.0562 15.0038 17.1918C14.6876 17.3433 14.4208 17.5812 14.2342 17.878C14.0476 18.1748 13.9488 18.5183 13.9492 18.8689C13.9492 18.9692 13.9093 19.0654 13.8384 19.1363C13.7675 19.2072 13.6714 19.247 13.5711 19.247H11.3733C11.3231 19.2468 11.2735 19.2367 11.2273 19.2172C11.1811 19.1977 11.1392 19.1693 11.104 19.1335C11.0688 19.0977 11.0411 19.0553 11.0224 19.0088C11.0038 18.9622 10.9945 18.9124 10.9952 18.8623C10.9943 18.513 10.8948 18.1711 10.7081 17.876C10.5214 17.5808 10.2551 17.3444 9.93986 17.194C9.654 17.0582 9.37939 16.8999 9.11864 16.7206C8.8296 16.5235 8.49078 16.412 8.14117 16.3989C7.79156 16.3859 7.44536 16.4718 7.14241 16.6468C7.05552 16.6969 6.9523 16.7105 6.85539 16.6846C6.75848 16.6587 6.67579 16.5954 6.62546 16.5087L5.53026 14.6033C5.48016 14.5164 5.46656 14.4132 5.49245 14.3163C5.51834 14.2194 5.5816 14.1367 5.66836 14.0864C5.97254 13.9072 6.21999 13.6458 6.38224 13.3323C6.5445 13.0187 6.61498 12.6658 6.58558 12.314C6.57081 12.1633 6.56417 12.0134 6.56417 11.862C6.56417 11.7106 6.57081 11.5607 6.58263 11.413C6.61202 11.0612 6.54154 10.7082 6.37929 10.3947C6.21703 10.0812 5.96959 9.81979 5.66541 9.6406C5.62238 9.61575 5.58466 9.58266 5.55443 9.54322C5.52419 9.50378 5.50202 9.45877 5.4892 9.41076C5.47637 9.36274 5.47314 9.31267 5.47968 9.26341C5.48622 9.21415 5.5024 9.16666 5.52731 9.12365L6.62546 7.21758C6.65063 7.17427 6.68414 7.13639 6.72405 7.10612C6.76395 7.07584 6.80947 7.05378 6.85795 7.04121C6.90644 7.02865 6.95694 7.02582 7.00653 7.03289C7.05612 7.03997 7.10381 7.05681 7.14684 7.08244C7.44973 7.25586 7.79536 7.34044 8.14411 7.32646C8.49285 7.31248 8.8306 7.20052 9.11864 7.00342C9.37955 6.82393 9.65441 6.66563 9.9406 6.53004C10.2564 6.37867 10.523 6.14111 10.7096 5.84475C10.8962 5.5484 10.9952 5.20532 10.9952 4.85512C10.9952 4.75483 11.035 4.65866 11.1059 4.58775C11.1768 4.51684 11.273 4.477 11.3733 4.477H13.5711C13.6212 4.47719 13.6709 4.48732 13.7171 4.50681C13.7633 4.5263 13.8052 4.55475 13.8404 4.59053C13.8755 4.62631 13.9032 4.6687 13.9219 4.71525C13.9406 4.76181 13.9499 4.8116 13.9492 4.86176C13.9501 5.21101 14.0496 5.55291 14.2363 5.84807C14.423 6.14322 14.6893 6.37962 15.0045 6.53004C15.2904 6.6658 15.565 6.82409 15.8257 7.00342C16.1148 7.20036 16.4536 7.31177 16.8032 7.32483C17.1528 7.33789 17.4989 7.25209 17.8019 7.07727C17.8888 7.02716 17.9921 7.01356 18.089 7.03945C18.1859 7.06534 18.2686 7.1286 18.3189 7.21537L19.4141 9.1207C19.4642 9.2076 19.4778 9.31081 19.4519 9.40772C19.426 9.50463 19.3628 9.58732 19.276 9.63765C18.9718 9.81683 18.7244 10.0782 18.5621 10.3918C18.3999 10.7053 18.3294 11.0582 18.3588 11.4101C18.3735 11.5607 18.3802 11.7143 18.3802 11.862Z" fill="#393E46"/>
<path id="Vector_2" d="M12.4722 8.16949C11.7419 8.16949 11.028 8.38606 10.4207 8.79179C9.8135 9.19753 9.34022 9.77422 9.06074 10.4489C8.78126 11.1237 8.70814 11.8661 8.85062 12.5824C8.99309 13.2987 9.34477 13.9566 9.86118 14.473C10.3776 14.9894 11.0355 15.3411 11.7518 15.4836C12.4681 15.626 13.2105 15.5529 13.8852 15.2734C14.56 14.994 15.1366 14.5207 15.5424 13.9134C15.9481 13.3062 16.1647 12.5923 16.1647 11.862C16.1635 10.883 15.7741 9.94453 15.0819 9.2523C14.3896 8.56007 13.4511 8.17067 12.4722 8.16949ZM12.4722 14.0775C12.034 14.0775 11.6056 13.9476 11.2413 13.7041C10.877 13.4607 10.593 13.1147 10.4253 12.7098C10.2576 12.305 10.2138 11.8595 10.2992 11.4298C10.3847 11 10.5957 10.6052 10.9056 10.2954C11.2154 9.98556 11.6102 9.77455 12.0399 9.68907C12.4697 9.60358 12.9152 9.64746 13.32 9.81514C13.7248 9.98283 14.0709 10.2668 14.3143 10.6311C14.5577 10.9955 14.6877 11.4238 14.6877 11.862C14.6877 12.4496 14.4543 13.0131 14.0388 13.4286C13.6233 13.8441 13.0598 14.0775 12.4722 14.0775Z" fill="#393E46"/>
</g>
</g>
</svg>
