<svg width="24" height="24" viewBox="0 0 24 24" fill="none" xmlns="http://www.w3.org/2000/svg">
<g id="icon=bell">
<path id="26. Notification" d="M18.9361 13.3927C18.6915 13.1493 18.4975 12.8599 18.3655 12.5411C18.2335 12.2223 18.1659 11.8805 18.1668 11.5354V9.375C18.1668 7.68425 17.4952 6.06274 16.2996 4.86719C15.1041 3.67165 13.4826 3 11.7918 3C10.1011 3 8.47958 3.67165 7.28403 4.86719C6.08849 6.06274 5.41684 7.68425 5.41684 9.375V11.5354C5.41774 11.8805 5.35022 12.2223 5.21818 12.5411C5.08614 12.8599 4.8922 13.1493 4.64759 13.3927C4.33838 13.7018 4.1278 14.0958 4.04249 14.5246C3.95717 14.9535 4.00095 15.398 4.16829 15.802C4.33563 16.206 4.61901 16.5512 4.98259 16.7941C5.34617 17.0371 5.77362 17.1667 6.21088 17.1667H8.321C8.48358 17.9673 8.91794 18.6871 9.55049 19.2041C10.183 19.7211 10.9749 20.0036 11.7918 20.0036C12.6088 20.0036 13.4006 19.7211 14.0332 19.2041C14.6657 18.6871 15.1001 17.9673 15.2627 17.1667H17.3735C17.8108 17.1667 18.2382 17.0371 18.6018 16.7941C18.9654 16.5512 19.2488 16.206 19.4161 15.802C19.5834 15.398 19.6272 14.9535 19.5419 14.5246C19.4566 14.0958 19.2453 13.7018 18.9361 13.3927ZM11.7918 18.5833C11.3539 18.5815 10.9272 18.4444 10.5702 18.1909C10.2131 17.9373 9.94315 17.5796 9.79717 17.1667H13.7865C13.6405 17.5796 13.3705 17.9373 13.0135 18.1909C12.6565 18.4444 12.2298 18.5815 11.7918 18.5833ZM17.3728 15.75H6.21088C6.05376 15.7501 5.90015 15.7036 5.76949 15.6163C5.63882 15.5291 5.53697 15.405 5.47683 15.2599C5.4167 15.1147 5.40097 14.955 5.43165 14.8009C5.46233 14.6468 5.53803 14.5053 5.64917 14.3943C6.02575 14.0197 6.32433 13.5741 6.52761 13.0834C6.7309 12.5927 6.83487 12.0666 6.8335 11.5354V9.375C6.8335 8.05997 7.3559 6.7988 8.28577 5.86893C9.21563 4.93906 10.4768 4.41667 11.7918 4.41667C13.1069 4.41667 14.368 4.93906 15.2979 5.86893C16.2278 6.7988 16.7502 8.05997 16.7502 9.375V11.5354C16.7488 12.0666 16.8528 12.5927 17.0561 13.0834C17.2593 13.5741 17.5579 14.0197 17.9345 14.3943C18.0456 14.5053 18.1213 14.6468 18.152 14.8009C18.1827 14.955 18.167 15.1147 18.1068 15.2599C18.0467 15.405 17.9449 15.5291 17.8142 15.6163C17.6835 15.7036 17.5299 15.7501 17.3728 15.75Z" fill="#393E46"/>
</g>
</svg>
