<svg width="24" height="24" viewBox="0 0 24 24" fill="none" xmlns="http://www.w3.org/2000/svg">
<g id="icon=filter">
<path id="Vector" d="M4.94444 16.1875H12.5944C12.9722 17.7812 14.4833 19 16.2778 19C18.0722 19 19.4889 17.7812 19.9611 16.1875H20.0556C20.6222 16.1875 21 15.8125 21 15.25C21 14.6875 20.6222 14.3125 20.0556 14.3125H19.9611C19.5833 12.7188 18.0722 11.5 16.2778 11.5C14.4833 11.5 13.0667 12.7188 12.5944 14.3125H4.94444C4.37778 14.3125 4 14.6875 4 15.25C4 15.8125 4.37778 16.1875 4.94444 16.1875ZM16.2778 13.375C17.3167 13.375 18.1667 14.2188 18.1667 15.25C18.1667 16.2812 17.3167 17.125 16.2778 17.125C15.2389 17.125 14.3889 16.2812 14.3889 15.25C14.3889 14.2188 15.2389 13.375 16.2778 13.375ZM4.94444 8.6875H5.03889C5.41667 10.2812 6.92778 11.5 8.72222 11.5C10.5167 11.5 11.9333 10.2812 12.4056 8.6875H20.0556C20.6222 8.6875 21 8.3125 21 7.75C21 7.1875 20.6222 6.8125 20.0556 6.8125H12.4056C12.0278 5.21875 10.5167 4 8.72222 4C6.92778 4 5.51111 5.21875 5.03889 6.8125H4.94444C4.37778 6.8125 4 7.1875 4 7.75C4 8.3125 4.37778 8.6875 4.94444 8.6875ZM8.72222 5.875C9.76111 5.875 10.6111 6.71875 10.6111 7.75C10.6111 8.78125 9.76111 9.625 8.72222 9.625C7.68333 9.625 6.83333 8.78125 6.83333 7.75C6.83333 6.71875 7.68333 5.875 8.72222 5.875Z" fill="#393E46"/>
</g>
</svg>
