<svg width="24" height="24" viewBox="0 0 24 24" fill="none" xmlns="http://www.w3.org/2000/svg">
<g id="icon=save">
<path id="Vector" d="M15.4286 3H8.57143C7.88945 3 7.2354 3.26861 6.75316 3.74673C6.27092 4.22485 6.00001 4.87333 6.00001 5.54949V19.1468C5.99941 19.2965 6.03873 19.4438 6.11399 19.5736C6.18925 19.7035 6.29777 19.8113 6.42858 19.8861C6.55888 19.9607 6.70669 20 6.85715 20C7.00761 20 7.15542 19.9607 7.28572 19.8861L12 17.1837L16.7143 19.8861C16.8449 19.9596 16.9927 19.9977 17.1429 19.9966C17.293 19.9977 17.4408 19.9596 17.5714 19.8861C17.7022 19.8113 17.8108 19.7035 17.886 19.5736C17.9613 19.4438 18.0006 19.2965 18 19.1468V5.54949C18 4.87333 17.7291 4.22485 17.2468 3.74673C16.7646 3.26861 16.1106 3 15.4286 3ZM16.2857 17.6766L12.4286 15.467C12.2983 15.3924 12.1505 15.3532 12 15.3532C11.8495 15.3532 11.7017 15.3924 11.5714 15.467L7.71429 17.6766V5.54949C7.71429 5.3241 7.8046 5.10795 7.96534 4.94857C8.12609 4.7892 8.3441 4.69966 8.57143 4.69966H15.4286C15.6559 4.69966 15.8739 4.7892 16.0347 4.94857C16.1954 5.10795 16.2857 5.3241 16.2857 5.54949V17.6766Z" fill="#393E46"/>
</g>
</svg>
