<svg width="24" height="24" viewBox="0 0 24 24" fill="none" xmlns="http://www.w3.org/2000/svg">
<g id="icon=search">
<path id="Vector" d="M19.5598 19.5598C18.9729 20.1467 18.0215 20.1467 17.4345 19.5598L14.7826 16.9078C13.6923 17.6073 12.4035 18.024 11.012 18.024C7.13966 18.024 4 14.8848 4 11.012C4 7.13919 7.13966 4 11.012 4C14.8849 4 18.024 7.13913 18.024 11.012C18.024 12.403 17.6068 13.6923 16.9078 14.7831L19.5598 17.4351C20.1467 18.022 20.1467 18.9729 19.5598 19.5598ZM11.012 6.00341C8.24604 6.00341 6.00344 8.2455 6.00344 11.0119C6.00344 13.7784 8.24607 16.0205 11.012 16.0205C13.7784 16.0205 16.0205 13.7784 16.0205 11.0119C16.0205 8.2455 13.7784 6.00341 11.012 6.00341Z" fill="#393E46"/>
</g>
</svg>
