<svg width="20" height="25" viewBox="4 2.5 16 19 " fill="none" xmlns="http://www.w3.org/2000/svg">
<g id="icon=sheild">
<path id="Vector" d="M19.3652 7.08542V13.1012C19.3652 13.9439 19.1032 14.8996 18.6313 15.7947C18.1556 16.6898 17.5144 17.4437 16.8169 17.9196L12.5349 20.8388C12.3776 20.9476 12.1962 21 12.0109 21C11.8253 21 11.6439 20.9476 11.4867 20.8388L7.20057 17.9155C5.77323 16.9397 4.65234 14.8269 4.65234 13.0972V7.07744C4.65234 6.72257 4.85393 6.39997 5.17241 6.24272L11.5995 3.09377C11.7271 3.03202 11.867 2.99994 12.0088 2.99994C12.1505 2.99994 12.2905 3.03202 12.418 3.09377L18.8452 6.25081C19.1636 6.40806 19.3652 6.73072 19.3652 7.08542Z" fill="#00EFD1"/>
<path id="Vector_2" d="M17.5104 7.66206V13.0972C17.5104 14.2181 16.7001 15.7503 15.7727 16.3833L12.0109 18.9517L8.24902 16.3874C7.3216 15.7543 6.51111 14.2221 6.51111 13.1012V7.65805L12.0109 4.96051L17.5104 7.66206Z" fill="#00ACEA"/>
</g>
</svg>
