<svg width="24" height="24" viewBox="0 0 24 24" fill="none" xmlns="http://www.w3.org/2000/svg">
<g id="icon=log out">
<path id="Vector" d="M20.9355 10.1667C20.8495 10.0833 20.8495 10 20.7634 9.91667L19.043 8.25C18.6989 7.91667 18.1828 7.91667 17.8387 8.25C17.4946 8.58333 17.4946 9.08333 17.8387 9.41667L18.0968 9.66667H15.8602C15.3441 9.66667 15 10 15 10.5C15 11 15.3441 11.3333 15.8602 11.3333H18.0968L17.8387 11.5833C17.4946 11.9167 17.4946 12.4167 17.8387 12.75C18.0108 12.9167 18.2688 13 18.4409 13C18.6129 13 18.871 12.9167 19.043 12.75L20.7634 11.0833C20.8495 11 20.9355 10.9167 20.9355 10.8333C21.0215 10.5833 21.0215 10.4167 20.9355 10.1667Z" fill="#393E46"/>
<path id="Vector_2" d="M14.1429 13.5135C13.6286 13.5135 13.2857 13.8595 13.2857 14.3784V15.2432C13.2857 15.7622 12.9429 16.1081 12.4286 16.1081H11.5714V8.67027C11.5714 7.54595 10.8857 6.59459 9.94286 6.24865L8.57143 5.72973H12.4286C12.9429 5.72973 13.2857 6.07568 13.2857 6.59459V7.45946C13.2857 7.97838 13.6286 8.32432 14.1429 8.32432C14.6571 8.32432 15 7.97838 15 7.45946V6.59459C15 5.12432 13.8857 4 12.4286 4H3.85714C3.77143 4 3.68571 4 3.6 4.08649C3.51429 4.08649 3.42857 4.17297 3.42857 4.17297L3.34286 4.25946C3.25714 4.25946 3.17143 4.34595 3.17143 4.43243V4.51892C3.08571 4.51892 3 4.60541 3 4.69189V16.973C3 17.3189 3.25714 17.6649 3.51429 17.7514L9.17143 19.9135C9.34286 20 9.6 20 9.77143 20C10.1143 20 10.4571 19.9135 10.7143 19.6541C11.1429 19.3081 11.4857 18.7892 11.4857 18.2703V17.8378H12.3429C13.8 17.8378 14.9143 16.7135 14.9143 15.2432V14.3784C15 13.9459 14.6571 13.5135 14.1429 13.5135ZM4.71429 16.3676V6.07568L9.25714 7.80541C9.6 7.97838 9.85714 8.32432 9.85714 8.67027V18.2703L4.71429 16.3676Z" fill="#393E46"/>
</g>
</svg>
