<svg width="28" height="28" viewBox="0 0 28 28" fill="none" xmlns="http://www.w3.org/2000/svg">
<path d="M27.9189 0.938235C27.9047 0.889865 27.8818 0.844448 27.8513 0.804201C27.8057 0.698863 27.7467 0.599763 27.6756 0.509328C27.6372 0.480156 27.6051 0.443707 27.581 0.402101C27.4727 0.309705 27.355 0.228842 27.2297 0.16084C27.0749 0.0651236 26.8983 0.00979376 26.7162 0H20.9324C20.574 0 20.2303 0.141213 19.9768 0.392575C19.7234 0.643937 19.581 0.984856 19.581 1.34034C19.581 1.69581 19.7234 2.03673 19.9768 2.2881C20.2303 2.53946 20.574 2.68067 20.9324 2.68067H23.4054L18.3919 7.90798C16.3964 6.43443 13.9743 5.6399 11.4865 5.64281C8.46976 5.6178 5.56623 6.78065 3.41285 8.87628C1.25947 10.9719 0.0321025 13.8292 0 16.8212C0.0321025 19.8133 1.25947 22.6705 3.41285 24.7661C5.56623 26.8618 8.46976 28.0246 11.4865 27.9996C14.5032 28.0246 17.4067 26.8618 19.5601 24.7661C21.7135 22.6705 22.9408 19.8133 22.9729 16.8212C22.975 14.2433 22.0611 11.747 20.3919 9.77105L25.2972 4.77159V7.30483C25.2972 7.66031 25.4396 8.00123 25.6931 8.25259C25.9465 8.50395 26.2902 8.64516 26.6486 8.64516C27.007 8.64516 27.3507 8.50395 27.6041 8.25259C27.8576 8.00123 27.9999 7.66031 27.9999 7.30483V1.40735C28.0014 1.24743 27.9739 1.08856 27.9189 0.938235ZM11.4865 25.2251C9.19849 25.2646 6.98828 24.4017 5.34131 22.8259C3.69435 21.2502 2.74533 19.0905 2.7027 16.8212C2.74533 14.5519 3.69435 12.3922 5.34131 10.8165C6.98828 9.24075 9.19849 8.37784 11.4865 8.41731C13.7744 8.37784 15.9847 9.24075 17.6316 10.8165C19.2786 12.3922 20.2276 14.5519 20.2702 16.8212C20.2276 19.0905 19.2786 21.2502 17.6316 22.8259C15.9847 24.4017 13.7744 25.2646 11.4865 25.2251Z" fill="#00ADB5"/>
</svg>
